# xmcd
#
# Track frame offsets:
#	150
#	18153
#	35303
#	58390
#	75013
#	95118
#	111824
#	128743
#	150012
#	171492
#	192551
#	215823
#	234804
#	246265
#
# Disc length: 3462 seconds
# Revision: 5
# Processed by: cddbd v1.5.2PL0 Copyright (c) Steve Scherf et al.
# Submitted via: dBpowerAMP V12.0
#
DISCID=b10d840e
DTITLE=Various Artist - Genius and Friends
DYEAR=2005
DGENRE=R&B
TTITLE0=Ray Charles and Angie Stone - All I Want To Do
TTITLE1=Ray Charles and Chris Isaak - You Are My Sunshine
TTITLE2=Ray Charles and Mary J. Blige - It All Goes By So Fast
TTITLE3=Ray Charles and Gladys Knight - You Were There
TTITLE4=Ray Charles and  Ruben Studdard and The Harlem Gospel Singers - Imagine
TTITLE5=Ray Charles and Leela James - Compared To What
TTITLE6=Ray Charles and Diana Ross - Big Bad Love
TTITLE7=Ray Charles and Idina Menzel - I Will Be There
TTITLE8=Ray Charles and George Michael - Blame It On the Sun
TTITLE9=Ray Charles and John Legend - Touch
TTITLE10=Ray Charles and Patti LaBelle and The Andrae Crouch Singers - Shout
TTITLE11=Ray Charles and Laura Pausini - Surrender To Love
TTITLE12=Ray Charles and Willie Nelson - Busted (Live)
TTITLE13=Ray Charles and Alicia Keys - America The Beautiful
EXTD=
EXTT0=
EXTT1=
EXTT2=
EXTT3=
EXTT4=
EXTT5=
EXTT6=
EXTT7=
EXTT8=
EXTT9=
EXTT10=
EXTT11=
EXTT12=
EXTT13=
PLAYORDER=
